<mxfile host="65bd71144e">
    <diagram id="f-DO4Vys-P7Q26xdcR-u" name="Page-1">
        <mxGraphModel dx="871" dy="711" grid="1" gridSize="10" guides="1" tooltips="1" connect="1" arrows="1" fold="1" page="1" pageScale="1" pageWidth="850" pageHeight="1100" math="0" shadow="0">
            <root>
                <mxCell id="0"/>
                <mxCell id="1" parent="0"/>
                <mxCell id="7" style="edgeStyle=none;html=1;endArrow=none;endFill=0;fontSize=20;" parent="1" source="2" target="3" edge="1">
                    <mxGeometry relative="1" as="geometry"/>
                </mxCell>
                <mxCell id="2" value="0" style="ellipse;whiteSpace=wrap;html=1;aspect=fixed;fontSize=20;" parent="1" vertex="1">
                    <mxGeometry x="440" y="40" width="80" height="80" as="geometry"/>
                </mxCell>
                <mxCell id="3" value="1" style="ellipse;whiteSpace=wrap;html=1;aspect=fixed;fontSize=20;" parent="1" vertex="1">
                    <mxGeometry x="600" y="40" width="80" height="80" as="geometry"/>
                </mxCell>
                <mxCell id="4" value="3" style="ellipse;whiteSpace=wrap;html=1;aspect=fixed;fontSize=20;" parent="1" vertex="1">
                    <mxGeometry x="440" y="200" width="80" height="80" as="geometry"/>
                </mxCell>
                <mxCell id="5" value="4" style="ellipse;whiteSpace=wrap;html=1;aspect=fixed;fontSize=20;" parent="1" vertex="1">
                    <mxGeometry x="760" y="200" width="80" height="80" as="geometry"/>
                </mxCell>
                <mxCell id="6" value="2" style="ellipse;whiteSpace=wrap;html=1;aspect=fixed;fontSize=20;" parent="1" vertex="1">
                    <mxGeometry x="600" y="200" width="80" height="80" as="geometry"/>
                </mxCell>
                <mxCell id="13" value="" style="endArrow=none;html=1;fontSize=20;" parent="1" source="3" target="6" edge="1">
                    <mxGeometry width="50" height="50" relative="1" as="geometry">
                        <mxPoint x="700" y="390" as="sourcePoint"/>
                        <mxPoint x="750" y="340" as="targetPoint"/>
                    </mxGeometry>
                </mxCell>
                <mxCell id="16" value="" style="endArrow=none;html=1;fontSize=20;" parent="1" source="6" target="4" edge="1">
                    <mxGeometry width="50" height="50" relative="1" as="geometry">
                        <mxPoint x="700" y="390" as="sourcePoint"/>
                        <mxPoint x="750" y="340" as="targetPoint"/>
                    </mxGeometry>
                </mxCell>
                <mxCell id="17" value="" style="endArrow=none;html=1;fontSize=20;" parent="1" source="2" target="4" edge="1">
                    <mxGeometry width="50" height="50" relative="1" as="geometry">
                        <mxPoint x="700" y="390" as="sourcePoint"/>
                        <mxPoint x="750" y="340" as="targetPoint"/>
                    </mxGeometry>
                </mxCell>
                <mxCell id="18" value="5" style="ellipse;whiteSpace=wrap;html=1;aspect=fixed;fontSize=20;" parent="1" vertex="1">
                    <mxGeometry x="600" y="360" width="80" height="80" as="geometry"/>
                </mxCell>
                <mxCell id="19" value="" style="endArrow=none;html=1;fontSize=20;" parent="1" source="18" target="6" edge="1">
                    <mxGeometry width="50" height="50" relative="1" as="geometry">
                        <mxPoint x="700" y="390" as="sourcePoint"/>
                        <mxPoint x="750" y="340" as="targetPoint"/>
                    </mxGeometry>
                </mxCell>
                <mxCell id="20" value="" style="endArrow=none;html=1;fontSize=20;" parent="1" source="6" target="5" edge="1">
                    <mxGeometry width="50" height="50" relative="1" as="geometry">
                        <mxPoint x="700" y="390" as="sourcePoint"/>
                        <mxPoint x="750" y="340" as="targetPoint"/>
                    </mxGeometry>
                </mxCell>
                <mxCell id="21" value="" style="endArrow=none;html=1;fontSize=20;" parent="1" source="18" target="5" edge="1">
                    <mxGeometry width="50" height="50" relative="1" as="geometry">
                        <mxPoint x="700" y="390" as="sourcePoint"/>
                        <mxPoint x="750" y="340" as="targetPoint"/>
                    </mxGeometry>
                </mxCell>
                <mxCell id="22" value="6" style="ellipse;whiteSpace=wrap;html=1;aspect=fixed;fontSize=20;" parent="1" vertex="1">
                    <mxGeometry x="760" y="40" width="80" height="80" as="geometry"/>
                </mxCell>
                <mxCell id="23" value="" style="endArrow=none;html=1;fontSize=20;" parent="1" source="5" target="22" edge="1">
                    <mxGeometry width="50" height="50" relative="1" as="geometry">
                        <mxPoint x="700" y="290" as="sourcePoint"/>
                        <mxPoint x="750" y="240" as="targetPoint"/>
                    </mxGeometry>
                </mxCell>
                <mxCell id="24" style="edgeStyle=none;html=1;endArrow=none;endFill=0;fontSize=20;" parent="1" source="25" target="26" edge="1">
                    <mxGeometry relative="1" as="geometry"/>
                </mxCell>
                <mxCell id="25" value="0" style="ellipse;whiteSpace=wrap;html=1;aspect=fixed;fontSize=20;" parent="1" vertex="1">
                    <mxGeometry x="40" y="80" width="80" height="80" as="geometry"/>
                </mxCell>
                <mxCell id="26" value="1" style="ellipse;whiteSpace=wrap;html=1;aspect=fixed;fontSize=20;" parent="1" vertex="1">
                    <mxGeometry x="280" y="80" width="80" height="80" as="geometry"/>
                </mxCell>
                <mxCell id="27" value="4" style="ellipse;whiteSpace=wrap;html=1;aspect=fixed;fontSize=20;" parent="1" vertex="1">
                    <mxGeometry x="40" y="320" width="80" height="80" as="geometry"/>
                </mxCell>
                <mxCell id="28" value="3" style="ellipse;whiteSpace=wrap;html=1;aspect=fixed;fontSize=20;" parent="1" vertex="1">
                    <mxGeometry x="280" y="320" width="80" height="80" as="geometry"/>
                </mxCell>
                <mxCell id="29" value="" style="endArrow=none;html=1;fontSize=20;" parent="1" source="26" target="28" edge="1">
                    <mxGeometry width="50" height="50" relative="1" as="geometry">
                        <mxPoint x="300" y="430" as="sourcePoint"/>
                        <mxPoint x="350" y="380" as="targetPoint"/>
                    </mxGeometry>
                </mxCell>
                <mxCell id="30" value="" style="endArrow=none;html=1;fontSize=20;" parent="1" source="28" target="27" edge="1">
                    <mxGeometry width="50" height="50" relative="1" as="geometry">
                        <mxPoint x="300" y="430" as="sourcePoint"/>
                        <mxPoint x="350" y="380" as="targetPoint"/>
                    </mxGeometry>
                </mxCell>
                <mxCell id="32" value="" style="endArrow=none;html=1;fontSize=20;" parent="1" source="33" target="28" edge="1">
                    <mxGeometry width="50" height="50" relative="1" as="geometry">
                        <mxPoint x="300" y="430" as="sourcePoint"/>
                        <mxPoint x="350" y="380" as="targetPoint"/>
                    </mxGeometry>
                </mxCell>
                <mxCell id="33" value="2" style="ellipse;whiteSpace=wrap;html=1;aspect=fixed;fontSize=20;" parent="1" vertex="1">
                    <mxGeometry x="160" y="200" width="80" height="80" as="geometry"/>
                </mxCell>
                <mxCell id="34" value="" style="endArrow=none;html=1;fontSize=20;" parent="1" source="25" target="33" edge="1">
                    <mxGeometry width="50" height="50" relative="1" as="geometry">
                        <mxPoint x="210" y="330" as="sourcePoint"/>
                        <mxPoint x="260" y="280" as="targetPoint"/>
                    </mxGeometry>
                </mxCell>
                <mxCell id="35" value="" style="endArrow=none;html=1;fontSize=20;" parent="1" source="33" target="26" edge="1">
                    <mxGeometry width="50" height="50" relative="1" as="geometry">
                        <mxPoint x="210" y="330" as="sourcePoint"/>
                        <mxPoint x="260" y="280" as="targetPoint"/>
                    </mxGeometry>
                </mxCell>
                <mxCell id="36" value="" style="endArrow=none;html=1;fontSize=20;" parent="1" source="27" target="33" edge="1">
                    <mxGeometry width="50" height="50" relative="1" as="geometry">
                        <mxPoint x="210" y="330" as="sourcePoint"/>
                        <mxPoint x="260" y="280" as="targetPoint"/>
                    </mxGeometry>
                </mxCell>
                <mxCell id="37" value="Network 1" style="text;html=1;strokeColor=none;fillColor=none;align=center;verticalAlign=middle;whiteSpace=wrap;rounded=0;fontSize=20;" parent="1" vertex="1">
                    <mxGeometry x="120" y="480" width="160" height="40" as="geometry"/>
                </mxCell>
                <mxCell id="38" value="Network 2" style="text;html=1;strokeColor=none;fillColor=none;align=center;verticalAlign=middle;whiteSpace=wrap;rounded=0;fontSize=20;" parent="1" vertex="1">
                    <mxGeometry x="560" y="480" width="160" height="40" as="geometry"/>
                </mxCell>
                <mxCell id="39" value="" style="endArrow=none;html=1;" parent="1" source="2" target="6" edge="1">
                    <mxGeometry width="50" height="50" relative="1" as="geometry">
                        <mxPoint x="680" y="400" as="sourcePoint"/>
                        <mxPoint x="730" y="350" as="targetPoint"/>
                    </mxGeometry>
                </mxCell>
                <mxCell id="40" value="" style="endArrow=none;html=1;" parent="1" source="4" target="3" edge="1">
                    <mxGeometry width="50" height="50" relative="1" as="geometry">
                        <mxPoint x="680" y="400" as="sourcePoint"/>
                        <mxPoint x="730" y="350" as="targetPoint"/>
                    </mxGeometry>
                </mxCell>
            </root>
        </mxGraphModel>
    </diagram>
</mxfile>